<mxfile host="app.diagrams.net" modified="2023-04-13T09:38:39.457Z" agent="Mozilla/5.0 (Windows NT 10.0; Win64; x64; rv:109.0) Gecko/20100101 Firefox/111.0" etag="5AW90AQ_Jg3yBgjGqQ_c" version="21.1.7" type="github">
  <diagram name="Page-1" id="gAKKqIdUF73eS8n0fPdb">
    <mxGraphModel dx="1836" dy="1004" grid="1" gridSize="10" guides="1" tooltips="1" connect="1" arrows="1" fold="1" page="1" pageScale="1" pageWidth="1100" pageHeight="850" math="0" shadow="0">
      <root>
        <mxCell id="0" />
        <mxCell id="1" parent="0" />
      </root>
    </mxGraphModel>
  </diagram>
</mxfile>
